<svg width="61" height="50" viewBox="0 0 61 50" fill="none" xmlns="http://www.w3.org/2000/svg">
<path d="M59.7998 43.4665C59.7998 44.881 59.2347 46.2375 58.2288 47.2377C57.223 48.2379 55.8587 48.7998 54.4362 48.7998H6.16344C4.74092 48.7998 3.37665 48.2379 2.37078 47.2377C1.3649 46.2375 0.799805 44.881 0.799805 43.4665V14.1331C0.799805 12.7186 1.3649 11.3621 2.37078 10.3619C3.37665 9.36171 4.74092 8.7998 6.16344 8.7998H16.8907L22.2543 0.799805H38.3453L43.7089 8.7998H54.4362C55.8587 8.7998 57.223 9.36171 58.2288 10.3619C59.2347 11.3621 59.7998 12.7186 59.7998 14.1331V43.4665Z" stroke="black" stroke-width="1.6" stroke-linecap="round" stroke-linejoin="round"/>
<path d="M30.2998 38.1331C36.2243 38.1331 41.0271 33.3575 41.0271 27.4665C41.0271 21.5754 36.2243 16.7998 30.2998 16.7998C24.3753 16.7998 19.5725 21.5754 19.5725 27.4665C19.5725 33.3575 24.3753 38.1331 30.2998 38.1331Z" stroke="black" stroke-width="1.6" stroke-linecap="round" stroke-linejoin="round"/>
</svg>
