<svg width="39" height="49" viewBox="0 0 39 49" fill="none" xmlns="http://www.w3.org/2000/svg">
<path d="M38.5 14.9L24.25 0.5H5.25C3.99022 0.5 2.78204 1.00571 1.89124 1.90589C1.00044 2.80606 0.5 4.02696 0.5 5.3V43.7C0.5 44.973 1.00044 46.1939 1.89124 47.0941C2.78204 47.9943 3.99022 48.5 5.25 48.5H33.75C35.0098 48.5 36.218 47.9943 37.1088 47.0941C37.9996 46.1939 38.5 44.973 38.5 43.7V14.9ZM24.25 0.5L24.25 14.9H38.5M29 26.9H10M29 36.5H10M14.75 17.3H10" stroke="black" stroke-linecap="round" stroke-linejoin="round"/>
</svg>
