<svg width="52" height="52" viewBox="0 0 52 52" fill="none" xmlns="http://www.w3.org/2000/svg">
<path d="M38.96 38.96C35.2304 41.8029 30.689 43.3779 26 43.4545C10.7273 43.4545 2 26 2 26C4.71394 20.9423 8.47811 16.5235 13.04 13.04M21.4182 9.06909C22.92 8.71755 24.4576 8.54183 26 8.54545C41.2727 8.54545 50 26 50 26C48.6756 28.4777 47.0961 30.8103 45.2873 32.96M30.6255 30.6255C30.0262 31.2685 29.3036 31.7843 28.5007 32.1421C27.6978 32.4998 26.8311 32.6922 25.9522 32.7077C25.0733 32.7232 24.2004 32.5615 23.3853 32.2323C22.5703 31.9031 21.8299 31.4132 21.2084 30.7916C20.5868 30.1701 20.0969 29.4297 19.7677 28.6147C19.4385 27.7996 19.2768 26.9267 19.2923 26.0478C19.3078 25.1689 19.5002 24.3022 19.8579 23.4993C20.2157 22.6964 20.7315 21.9738 21.3745 21.3745M2 2L50 50" stroke="black" stroke-width="4" stroke-linecap="round" stroke-linejoin="round"/>
</svg>
