<svg width="53" height="50" viewBox="0 0 53 50" fill="none" xmlns="http://www.w3.org/2000/svg">
<path d="M50.6684 48.75C50.6684 48.75 51.7495 46.3437 51.7495 43.95C51.7495 40.239 50.1583 37.55 46.9761 35.95M39.0205 21.1958C42.7669 19.5498 45.385 15.7907 45.385 11.4167C45.385 7.04263 42.7669 3.2835 39.0205 1.63753M31.7013 11.4167C31.7013 17.3077 26.9522 22.0833 21.0938 22.0833C15.2354 22.0833 10.4863 17.3077 10.4863 11.4167C10.4863 5.52563 15.2354 0.75 21.0938 0.75C26.9522 0.75 31.7013 5.52563 31.7013 11.4167ZM20.7623 33.75C30.8992 33.75 37.2091 38.2141 40.2121 41.0751C41.6078 42.4047 41.7111 44.4852 40.7685 46.1703C39.8771 47.7638 38.2003 48.75 36.382 48.75H5.88829C4.01898 48.75 2.29502 47.7361 1.37857 46.0978C0.453514 44.4441 0.503685 42.4088 1.83023 41.0595C4.64348 38.198 10.6438 33.75 20.7623 33.75Z" stroke="black" stroke-width="1.5" stroke-linecap="round" stroke-linejoin="round"/>
</svg>
