<svg width="33" height="50" viewBox="0 0 33 50" fill="none" xmlns="http://www.w3.org/2000/svg">
<path d="M0.833496 20.4699C0.833496 20.4699 1.33971 31.379 5.48669 35.6329C8.27882 38.4971 12.0658 40.1062 16.0144 40.1062C19.9631 40.1062 23.7501 38.4971 26.5422 35.6329C29.9746 32.112 30.903 24.8335 30.903 24.8335L31.8335 20.3336M16.0144 40.1062V48.8335M7.50673 48.8335H24.5222M16.3069 0.833496C11.6542 0.833496 8.72972 3.8335 8.72972 7.37895C8.72972 7.37895 8.72972 17.3335 9.92612 24.8335C10.2341 26.7642 10.5984 28.2343 11.795 29.4618C12.9916 30.6893 14.6146 31.379 16.3069 31.379C17.9992 31.379 19.6222 30.6893 20.8188 29.4618C22.0154 28.2343 22.6877 24.8335 22.6877 24.8335C24.0344 15.8335 24.0344 7.37895 24.0344 7.37895C24.0344 4.96324 21.8901 0.833496 16.3069 0.833496Z" stroke="black" stroke-width="1.66667" stroke-linecap="round" stroke-linejoin="round"/>
</svg>
