<svg width="57" height="48" viewBox="0 0 57 48" fill="none" xmlns="http://www.w3.org/2000/svg">
<path d="M52.9077 24.7273L57 28.8291L37.9123 48L27.7692 37.8182L31.8615 33.7164L37.9123 39.7673L52.9077 24.7273ZM20.4615 37.8182L29.2308 46.5455H0V40.7273C0 34.2982 10.4646 29.0909 23.3846 29.0909L28.9092 29.4109L20.4615 37.8182ZM23.3846 0C26.4856 0 29.4596 1.22597 31.6523 3.40821C33.8451 5.59045 35.0769 8.55021 35.0769 11.6364C35.0769 14.7225 33.8451 17.6823 31.6523 19.8645C29.4596 22.0468 26.4856 23.2727 23.3846 23.2727C20.2836 23.2727 17.3096 22.0468 15.1169 19.8645C12.9242 17.6823 11.6923 14.7225 11.6923 11.6364C11.6923 8.55021 12.9242 5.59045 15.1169 3.40821C17.3096 1.22597 20.2836 0 23.3846 0Z" fill="black"/>
</svg>
