<svg width="52" height="52" viewBox="0 0 52 52" fill="none" xmlns="http://www.w3.org/2000/svg">
<path d="M37.1053 49.633C34.8329 49.3969 32.8555 47.7774 31.6621 46.6621C30.3722 47.8676 28.1665 49.6621 25.6621 49.6621C23.1577 49.6621 20.952 47.8676 19.6621 46.6621C18.4687 47.7774 16.4914 49.3969 14.2189 49.633C14.0351 49.6521 13.8495 49.6621 13.6621 49.6621C11.1577 49.6621 8.95201 47.8676 7.66211 46.6621C6.3722 47.8676 4.16647 49.6621 1.66211 49.6621M49.6621 49.6621C47.1577 49.6621 44.952 47.8676 43.6621 46.6621C42.3722 47.8676 40.1665 49.6621 37.6621 49.6621C37.4748 49.6621 37.2891 49.6521 37.1053 49.633M11.0092 26.6621V13.6621C11.0092 11.453 12.8836 9.66211 15.1957 9.66211H19.3823M37.1053 49.633C38.6954 49.4488 40.0556 48.4058 40.5715 46.927L45.4466 32.9533C46.1055 31.0648 45.2107 29.0009 43.3472 28.1106L40.315 26.6621L27.5344 20.5565C26.3558 19.9935 24.9685 19.9935 23.7898 20.5565L11.0092 26.6621L7.97702 28.1106C6.11354 29.0009 5.21875 31.0648 5.87759 32.9533L10.7527 46.927C11.2686 48.4058 12.6288 49.4488 14.2189 49.633M40.315 26.6621V13.6621C40.315 11.453 38.4406 9.66211 36.1285 9.66211H31.9419M31.9419 9.66211V5.66211C31.9419 3.45297 30.0675 1.66211 27.7554 1.66211H23.5688C21.2567 1.66211 19.3823 3.45297 19.3823 5.66211V9.66211M31.9419 9.66211H19.3823" stroke="black" stroke-width="3.32439" stroke-linecap="round" stroke-linejoin="round"/>
</svg>
